:SAMPLES-PER-SECOND 30
:FULLY-SPECIFIED
:DEGREES
778
root  35.2059 39.5349 12.0786 -172.29 83.2887 -167.392
RightUpLeg  -3.07566 -23.2482 -7.00195
RightLeg  21.7089 -5.91127 -2.75164
RightFoot  -8.88865 -0.122039 2.88786
RightToes  0.000481921 0.542163 -0.142578
Spine  12.0106 0.628206 0.862431
Spine1  7.94108 2.14503 -4.30201
HEad  9.93134 4.13271 3.83471
LeftShoulder1  6.35125 -12.6249 -33.3315
LeftArm  -17.5202 -19.2405 -33.041
LeftForeArm  -158.493 -45.5019 -171.604
LeftHand  -0.25398 0.0180481 5.50724
RightShoulder  5.74182 11.483 32.3663
RightArm  7.44687 22.1736 57.1421
RightForeArm  176.202 58.8006 164.117
RightHand  -0.37281 2.60175 -5.68234
LeftUpLeg  -5.03141 13.4511 12.3623
LeftLeg  17.9869 2.49645 1.26519
LeftFoot  -3.3765 0.66911 -9.30843
LeftToes  1.06244e-005 4.65869e-005 -8.65518e-006
779
root  35.0608 39.4728 11.8683 -176.511 87.1989 -171.284
RightUpLeg  -4.27969 -20.311 -6.56874
RightLeg  22.3915 -5.00643 -2.50194
RightFoot  -8.272 -0.12061 2.4093
RightToes  0.000481921 0.542163 -0.142578
Spine  13.2042 0.758063 1.24393
Spine1  8.53341 2.35339 -4.44817
HEad  8.26602 5.25986 4.82829
LeftShoulder1  5.9975 -11.7634 -33.255
LeftArm  -19.069 -17.3356 -32.2927
LeftForeArm  -157.052 -44.9579 -171.851
LeftHand  -0.25398 0.0180481 5.50724
RightShoulder  5.68064 11.2909 32.4501
RightArm  7.61242 23.8663 57.2103
RightForeArm  -178.977 59.21 164.286
RightHand  -0.360853 3.02795 -5.25442
LeftUpLeg  -4.23513 16.2803 12.8322
LeftLeg  19.0978 3.34195 1.65423
LeftFoot  -4.02048 0.598425 -8.96971
LeftToes  1.06244e-005 4.65869e-005 -8.65518e-006
780
root  35.1082 39.603 11.6249 -33.28 86.6732 -28.8395
RightUpLeg  -5.85011 -15.8339 -6.13165
RightLeg  21.1123 -3.8868 -1.87389
RightFoot  -6.80779 -0.128297 2.07467
RightToes  0.000481921 0.542163 -0.142578
Spine  12.7339 1.55795 2.10158
Spine1  9.07996 3.58508 -5.8809
HEad  7.04959 6.69312 3.37572
LeftShoulder1  5.98111 -10.7252 -35.9553
LeftArm  -21.1564 -9.54108 -30.0078
LeftForeArm  -155.801 -43.3191 -172.405
LeftHand  -0.25398 0.0180481 5.50724
RightShoulder  5.69347 11.0719 33.1167
RightArm  8.96719 22.9623 57.4252
RightForeArm  -177.198 60.0864 163.899
RightHand  -0.360688 3.25854 -5.13371
LeftUpLeg  -2.19718 21.3079 13.1537
LeftLeg  17.3972 4.29011 1.55311
LeftFoot  -3.97264 0.610219 -9.09213
LeftToes  1.06244e-005 4.65869e-005 -8.65518e-006
781
root  35.3105 39.8128 11.3217 -2.59204 79.8374 -0.158691
RightUpLeg  -8.18156 -11.0467 -5.69168
RightLeg  18.6149 -1.98986 -0.920554
RightFoot  -4.68846 -0.135639 1.78791
RightToes  0.000481921 0.542163 -0.142578
Spine  11.3217 2.43065 3.71332
Spine1  8.51342 5.18989 -8.55336
HEad  6.27268 8.94994 0.940283
LeftShoulder1  6.11245 -9.89374 -39.3886
LeftArm  -25.0674 4.50512 -27.6565
LeftForeArm  -156.612 -40.8421 -173.055
LeftHand  -0.25398 0.0180481 5.50724
RightShoulder  5.70238 10.6783 34.2575
RightArm  11.6498 20.2302 57.696
RightForeArm  -177.937 61.1909 163.118
RightHand  -0.377224 3.71304 -5.12822
LeftUpLeg  -0.163644 23.0804 13.2755
LeftLeg  14.4852 9.97669 0.725109
LeftFoot  -3.67152 0.666428 -9.59723
LeftToes  1.06244e-005 4.65869e-005 -8.65518e-006
782
root  35.5793 39.9825 10.9699 -1.09937 72.1285 -1.04358
RightUpLeg  -10.6195 -7.11302 -5.20747
RightLeg  15.6178 1.1925 0.278535
RightFoot  -2.22212 -0.142686 1.59476
RightToes  0.000481921 0.542163 -0.142578
Spine  10.0967 3.01098 6.08907
Spine1  7.12473 6.63038 -12.005
HEad  5.35857 12.2385 -0.432422
LeftShoulder1  6.15563 -9.49488 -41.019
LeftArm  -30.8057 21.3443 -26.6684
LeftForeArm  -163.446 -38.3919 -173.342
LeftHand  -0.25398 0.0180481 5.50724
RightShoulder  5.6346 10.1998 35.1519
RightArm  14.7825 17.5561 57.8176
RightForeArm  -178.254 61.9513 162.566
RightHand  -0.403239 4.41692 -5.12213
LeftUpLeg  1.28637 19.7367 13.1121
LeftLeg  11.9571 21.1825 -0.576469
LeftFoot  -3.61782 0.717453 -10.2906
LeftToes  1.06244e-005 4.65869e-005 -8.65518e-006
783
root  35.8087 40.0613 10.6381 -0.518311 64.5224 -2.11792
RightUpLeg  -12.297 -4.59465 -4.42496
RightLeg  12.8663 5.72356 1.29559
RightFoot  0.102661 -0.164426 1.64342
RightToes  0.000481921 0.542163 -0.142578
Spine  9.7084 3.49495 8.10312
Spine1  6.23225 7.67622 -14.3046
HEad  4.12251 16.0077 -0.976244
LeftShoulder1  6.24867 -9.74146 -40.8622
LeftArm  -34.5301 34.0586 -27.2461
LeftForeArm  -172.93 -37.0935 -173.157
LeftHand  -0.25398 0.0180481 5.50724
RightShoulder  5.47163 9.82663 35.081
RightArm  17.4786 16.7483 57.6692
RightForeArm  -178.211 62.3625 162.275
RightHand  -0.409356 4.64794 -5.09277
LeftUpLeg  2.47398 17.7293 13.1222
LeftLeg  10.9338 30.6274 -1.2751
LeftFoot  -3.99317 0.725233 -10.9001
LeftToes  1.06244e-005 4.65869e-005 -8.65518e-006
784
root  35.8844 40.049 10.368 -1.03821 58.5601 -3.16028
RightUpLeg  -13.0582 -3.05726 -3.39918
RightLeg  11.2335 9.68227 1.77093
RightFoot  1.75388 -0.191653 1.77545
RightToes  0.000481921 0.542163 -0.142578
Spine  10.2435 3.67938 8.35042
Spine1  6.46782 7.70902 -13.3383
HEad  2.83856 19.5848 -2.44075
LeftShoulder1  6.45238 -10.4351 -40.0329
LeftArm  -32.7906 37.0894 -27.5557
LeftForeArm  -175 -36.5301 -173.184
LeftHand  -0.25398 0.0180481 5.50724
RightShoulder  5.31488 9.74426 34.17
RightArm  19.2262 18.3706 57.3694
RightForeArm  -179.078 62.9476 161.758
RightHand  -0.389894 4.3169 -5.00819
LeftUpLeg  3.28175 21.1009 13.8915
LeftLeg  12.3336 32.8073 -0.502615
LeftFoot  -4.72042 0.668004 -11.0287
LeftToes  1.06244e-005 4.65869e-005 -8.65518e-006
785
root  35.7548 39.956 10.1374 -1.97937 55.5862 -3.82019
RightUpLeg  -13.5638 -1.97703 -2.62413
RightLeg  11.37 11.1027 1.88809
RightFoot  2.41727 -0.182682 1.65018
RightToes  0.000481921 0.542163 -0.142578
Spine  11.7761 2.92244 6.35872
Spine1  6.83546 5.91652 -9.29646
HEad  1.95706 23.1364 -4.99208
LeftShoulder1  6.45922 -10.9301 -38.5653
LeftArm  -27.6841 30.3055 -24.1448
LeftForeArm  -171.503 -36.7817 -173.324
LeftHand  -0.25398 0.0180481 5.50724
RightShoulder  5.3448 10.1529 33.1949
RightArm  20.1348 21.4649 57.4345
RightForeArm  179.474 64.0709 160.731
RightHand  -0.381009 4.0299 -5.02753
LeftUpLeg  2.96776 30.8595 14.9652
LeftLeg  15.5686 25.5489 2.13974
LeftFoot  -5.61154 0.56562 -10.6053
LeftToes  1.06244e-005 4.65869e-005 -8.65518e-006
786
root  35.4743 39.7727 9.91482 -3.17822 55.3293 -4.28406
RightUpLeg  -14.3214 -1.3118 -2.37238
RightLeg  13.3733 10.2274 2.12347
RightFoot  2.09051 -0.141464 1.32037
RightToes  0.000481921 0.542163 -0.142578
Spine  14.4447 1.26828 2.84695
Spine1  6.3726 2.57374 -3.87315
HEad  1.67127 26.7448 -7.07729
LeftShoulder1  6.1487 -11.1242 -35.9408
LeftArm  -24.8556 17.3387 -17.3921
LeftForeArm  -172.95 -39.3977 -172.701
LeftHand  -0.25398 0.0180481 5.50724
RightShoulder  5.57935 10.9905 32.5493
RightArm  20.4599 24.4377 58.2218
RightForeArm  178.137 65.3729 159.48
RightHand  -0.396915 3.98179 -5.24583
LeftUpLeg  1.18538 39.927 15.1923
LeftLeg  19.2943 16.1287 5.51081
LeftFoot  -6.60062 0.463749 -10.2353
LeftToes  1.06244e-005 4.65869e-005 -8.65518e-006
787
root  35.1148 39.513 9.71851 -4.97827 57.1265 -5.17542
RightUpLeg  -15.1722 -1.63151 -2.31334
RightLeg  16.4699 8.41558 2.45079
RightFoot  1.10731 -0.120005 1.17073
RightToes  0.000481921 0.542163 -0.142578
Spine  17.4648 -0.334436 -1.3016
Spine1  5.88085 -1.14897 2.29401
HEad  1.8792 28.9699 -7.50671
LeftShoulder1  5.79246 -11.6801 -32.1234
LeftArm  -26.9465 1.77778 -10.3968
LeftForeArm  178.109 -49.8825 -168.947
LeftHand  -0.25398 0.0180481 5.50724
RightShoulder  5.71511 11.6729 31.7072
RightArm  19.7079 26.4069 59.1698
RightForeArm  175.921 66.1057 158.561
RightHand  -0.438634 3.95979 -5.77241
LeftUpLeg  -1.70661 38.3047 14.789
LeftLeg  23.844 15.0087 7.60985
LeftFoot  -7.71193 0.369523 -10.1943
LeftToes  1.06244e-005 4.65869e-005 -8.65518e-006
788
root  34.7076 39.2066 9.57031 -7.91394 61.1841 -7.53076
RightUpLeg  -16.0682 -3.93505 -1.90545
RightLeg  19.8501 6.45207 2.37703
RightFoot  -0.177887 -0.127914 1.30012
RightToes  0.000481921 0.542163 -0.142578
Spine  19.8417 -1.31385 -5.62097
Spine1  6.00645 -4.77189 9.81224
HEad  2.63795 28.2845 -6.46875
LeftShoulder1  5.39983 -13.0558 -26.5169
LeftArm  -32.2536 -15.5348 -5.27686
LeftForeArm  148.778 -72.1569 -137.212
LeftHand  -0.25398 0.0180481 5.50724
RightShoulder  5.42655 11.5552 30.0525
RightArm  17.5593 27.6998 59.5642
RightForeArm  171.503 66.1647 158.014
RightHand  -0.518343 3.85574 -6.82689
LeftUpLeg  -5.44901 33.9227 14.6591
LeftLeg  28.5251 14.4283 8.67311
LeftFoot  -8.9058 0.268149 -10.0787
LeftToes  1.06244e-005 4.65869e-005 -8.65518e-006
789
root  34.3423 38.9053 9.44069 -12.2191 66.5419 -11.9005
RightUpLeg  -17.1127 -7.65051 -1.25319
RightLeg  22.8103 4.5305 1.8735
RightFoot  -1.38225 -0.13619 1.47097
RightToes  0.000481921 0.542163 -0.142578
Spine  21.925 -2.01393 -9.53368
Spine1  5.39518 -8.31813 18.3292
HEad  4.06527 25.8861 -4.95281
LeftShoulder1  4.47942 -14.3465 -18.4652
LeftArm  -38.3844 -30.7024 -3.99621
LeftForeArm  46.9307 -66.5722 -19.2001
LeftHand  -0.25398 0.0180481 5.50724
RightShoulder  4.89946 10.8353 28.1668
RightArm  15.4235 28.7173 59.7226
RightForeArm  167.07 66.2532 157.427
RightHand  -0.580936 3.59106 -7.81489
LeftUpLeg  -9.75981 30.0199 14.4372
LeftLeg  32.1769 12.5849 8.74633
LeftFoot  -10.0969 0.16421 -9.49693
LeftToes  1.06244e-005 4.65869e-005 -8.65518e-006
790
root  34.2078 38.7359 9.30289 -14.9813 69.5197 -15.2034
RightUpLeg  -18.1192 -9.83372 -0.981087
RightLeg  24.2752 3.46532 1.49014
RightFoot  -1.91828 -0.143729 1.58414
RightToes  0.000481921 0.542163 -0.142578
Spine  23.6225 -2.68924 -12.1284
Spine1  3.60535 -10.7996 24.4674
HEad  6.03932 24.7246 -4.08402
LeftShoulder1  3.13303 -13.5846 -11.0764
LeftArm  -43.1796 -35.9608 -7.81176
LeftForeArm  47.4768 -47.2979 -7.10246
LeftHand  -0.25398 0.0180481 5.50724
RightShoulder  4.78132 10.608 27.865
RightArm  15.0681 28.965 59.9634
RightForeArm  167.613 66.738 156.991
RightHand  -0.52448 3.16061 -7.39058
LeftUpLeg  -12.3481 29.6349 14.1469
LeftLeg  33.5924 10.3997 7.71475
LeftFoot  -11.0815 0.0856152 -8.61743
LeftToes  1.06244e-005 4.65869e-005 -8.65518e-006
791
root  34.4255 38.8001 9.15551 -11.7415 67.2675 -12.543
RightUpLeg  -18.6983 -7.81353 -1.58147
RightLeg  23.5554 3.82235 1.60091
RightFoot  -1.42279 -0.168038 1.8214
RightToes  0.000481921 0.542163 -0.142578
Spine  23.3966 -2.80006 -12.6395
Spine1  2.88607 -10.9506 24.9281
HEad  7.67566 25.412 -4.38195
LeftShoulder1  2.5551 -10.8925 -10.6271
LeftArm  -42.4444 -30.567 -14.4777
LeftForeArm  52.8758 -59.6318 -17.7322
LeftHand  -0.25398 0.0180481 5.50724
RightShoulder  5.23967 11.2214 29.5948
RightArm  16.0499 27.6335 59.8276
RightForeArm  173.514 67.0133 157.379
RightHand  -0.410547 3.15987 -5.87311
LeftUpLeg  -11.3076 34.8613 14.0081
LeftLeg  32.4694 8.39705 6.08299
LeftFoot  -11.4904 0.0577759 -8.12801
LeftToes  1.06244e-005 4.65869e-005 -8.65518e-006
792
root  34.8939 39.0213 8.96393 -6.81409 61.5124 -7.51416
RightUpLeg  -18.2292 -3.12927 -2.92416
RightLeg  21.2677 5.18398 2.01797
RightFoot  -0.209917 -0.224246 2.28219
RightToes  0.000481921 0.542163 -0.142578
Spine  21.4971 -2.13827 -10.1117
Spine1  4.4813 -8.82121 20.078
HEad  8.2159 25.6995 -5.00714
LeftShoulder1  3.10667 -9.46852 -17.1648
LeftArm  -37.28 -19.0828 -19.4048
LeftForeArm  116.947 -80.0445 -93.182
LeftHand  -0.25398 0.0180481 5.50724
RightShoulder  5.71107 11.7086 31.6014
RightArm  16.4503 25.4143 59.1045
RightForeArm  177.277 66.7573 158.068
RightHand  -0.392648 3.66872 -5.33883
LeftUpLeg  -7.03813 41.8768 14.582
LeftLeg  30.0254 7.56711 5.05186
LeftFoot  -11.1531 0.0811547 -8.4387
LeftToes  1.06244e-005 4.65869e-005 -8.65518e-006
